<?xml version="1.0" standalone="yes"?>
<svg xmlns="http://www.w3.org/2000/svg" width="306" height="311">
<path style="fill:#040404; stroke:none;" d="M0 33L0 57L13 57L13 33L0 33M40 43L40 82L78 82L79 81L79 44L78 43L40 43M69 153L32 153L31.2222 154.472L30.6944 154.972L29.8889 155.833L28 157.389L26 159.083L25 160.028L24 161L23 162L21 163.917L19.0278 165.611L18.0833 166.389L16.4722 168.083L15.8611 169.028L15.2778 170L14.4722 172L14.0833 174L14.0278 175L14.0833 177L14.4722 179L15.2778 181L15.8611 181.972L16.4722 182.917L18.0833 184.611L19.0278 185.389L21 187L22 187.806L24 189.389L25 190.194L27 191.806L28 192.611L29 193.389L30 194.194L32 195.806L33 196.611L34 197.389L35 198.194L37 199.806L38 200.611L39 201.389L40 202.194L42 203.806L43 204.611L44 205.389L45 206.194L47 207.806L48 208.611L49 209.389L50 210.194L52 211.806L53 212.611L54 213.389L55 214.194L57 215.806L58 216.611L59 217.389L60 218.194L62 219.806L63 220.611L64 221.389L66 223.056L67 223.944L69 225.611L70.9444 227.167L71.5 227.583L73 229L74.5 228.25L75.0556 227.778L76.0556 227.139L77 226.444L79 225.25L80 224.778L81 224.25L83 223.389L84 223.028L86 222.333L88 221.694L89 221.417L91 221.083L92 221.028L94 221L96 221.111L98 221.639L99 222.111L101 223.333L102 224L104 225.417L105 226.222L107 227.917L107.944 228.667L109.5 229.639L111 230L110.306 228.5L109.944 227.944L108.833 226L108.25 225L107.222 223L106.778 222L106.222 221L105.25 219L104.833 218L104.389 217L103.611 215L103.167 214L102.722 213L102.167 212L101.611 211L100.333 209L99.0278 207L98.3889 206L97.25 204L96.7778 203L96.25 202L95.3889 200L95.0278 199L94.3333 197L93.6944 195L93.4167 194L93.1944 193L92.8056 191L92.3889 189L92.0556 187L91.9444 186L91.6111 184L91.3889 183L91.0833 181L91.0278 180L91 178L91 176L91 173L91 170L91 169L91.0278 167L91.0833 166L91.3889 164L91.6111 163L91.9167 161L92 160L92.2222 158L92.6111 156L92.8056 155L93.1944 153L93.3889 152L93.6111 151L94 149L94.4167 147L95 145L95.6111 143L95.8611 142L96.1111 141L96.2778 140L96.3889 138L96.3056 137L96 135L95.6111 133L95.3889 132L95.0833 130L95.0278 129L95 127L95.0833 125L95.3889 123L95.6389 122L96.1389 120L96.3889 119L96.6944 118L97.3333 116L97.6667 115L98.4167 113L99.4167 111L100.028 110L101.333 108L102 107L103.417 105L105.083 103L107 101.083L109 99.3889L110 98.6389L112 97.1667L113 96.4444L115 95.25L116 94.7778L117 94.2222L118 93.7778L119 93.25L121 92.3889L123 91.6944L124 91.3889L125 91.1389L127 90.6389L128 90.3889L130 90.0833L132 90L134 89.9167L136 89.6111L137 89.3889L139 89.0833L140 89.0278L141 89L143 89L146 89L148 89.0278L149 89.0833L151 89.3889L152 89.6389L154 90.1389L155 90.3889L157 91.0278L158 91.3889L160 92.2778L162 93.3889L163 94.0278L165 95.4167L167 97.0833L167.972 98.0278L168.917 99L170.611 101L171.389 102L173.056 104L173.944 105L175.611 106.917L177.222 108.583L179.028 109.972L180 110.611L181 111.167L182 111.722L184 112.611L185 112.972L187 113.611L188 113.861L190 114.389L191 114.694L193 115.306L194 115.611L196 116.139L197 116.389L198 116.694L200 117.333L202 118.028L203 118.389L204 118.833L205 119.25L206 119.778L207 120.222L208 120.778L210 121.75L212 122.611L214 123.389L216 124.25L216.944 124.75L217.944 125.167L218.5 125.5L220 126L219.222 124.5L218.694 123.944L217.889 122.944L216.972 122L215 120L214 119L211 116L209 114L207 112.028L206 111.083L204 109.389L203 108.611L201 106.917L200 105.972L199 105L197 103L192 98L193.5 98.4444L194.056 98.6667L196 99.3889L197 99.8333L198 100.25L199 100.778L200 101.25L202 102.389L203 103.028L205 104.333L206 105L208 106.389L209 107.139L210 107.861L211 108.639L213 110.222L214 111.083L216 113L218 115L220 117L220.972 118L221.917 119L223.611 121L225.139 123L225.861 124L226.611 125L228 127L228.667 128L229.972 130L230.611 131L231.167 132L231.722 133L232.167 134L232.611 135L232.972 136L233.667 138L234.306 140L234.778 142L234.889 144L234.778 145L234.389 147L234 149L233.611 151L233.194 153L232.778 155L232.528 156L232.167 157L231.806 158L231 160L230.194 162L229.806 163L229.389 164L228.611 166L228.194 167L227.389 169L226.611 171L226.167 172L225.75 173L225.222 174L224.778 175L224.222 176L223.25 178L222.361 180L221.944 181L220.944 183L219.833 185L219.25 186L218.222 188L217.75 189L217.167 190L216.611 191L215.389 193L214.194 195L213.611 196L212.972 197L212.333 198L211 200L209.667 202L209 203L207.611 205L206.889 206L205.611 208L204.639 210L204.194 211L203.806 212L203.389 213L202.611 215L201.806 217L201.389 218L200.611 220L199.806 222L199.389 223L198.611 225L198.194 225.944L197.806 226.944L197.5 227.5L197 229L198.25 228.222L198.667 227.694L199.417 226.889L200.861 225L202.361 223L203.139 222L204.639 220L205.389 219L207.083 217.111L209 215.639L210 215.111L212 214.5L214 214.556L215 214.861L216 215.194L218 216L219 216.417L221 217.417L223 218.611L225 219.75L226 220.222L227 220.778L228 221.25L230 222.472L231 223.25L232.889 224.972L233.694 225.944L234.222 226.5L235 228L236.5 227.639L237.056 227.278L238.056 226.667L240 225.056L242 223.389L243 222.611L245 220.917L247 219L249 217L250 216L252 214.083L253 213.222L255 211.611L257 209.917L258 208.972L259 208L261 206L262 205L264 203.028L265 202.083L267 200.389L268 199.611L270 197.917L271 196.972L273 195L275 193L276 192.028L277 191.083L279 189.389L280 188.611L282 186.917L284 185L285 184L287 182L288 181L290 179.083L291 178.222L292.917 176.611L294.583 174.917L295.278 173.972L296.444 172L297.278 170L297.75 168L297.833 167L297.528 165L296.722 163L295.528 161L294.75 160L292.972 158.083L291 156.389L289 154.806L287 153.194L286 152.389L285 151.611L284 150.806L282 149.194L281 148.389L279 146.806L277 145.194L276 144.389L275 143.611L273 141.944L272 141.056L270 139.389L269 138.611L268 137.806L266 136.194L265 135.389L264 134.611L263 133.806L261 132.194L260 131.389L259 130.611L258 129.806L256 128.194L255 127.389L254 126.611L253 125.806L251 124.194L250 123.389L249 122.611L247 120.944L246 120.056L244 118.389L242 116.806L240 115.194L239 114.389L238 113.611L237 112.806L235 111.194L234 110.389L233 109.611L232 108.806L230 107.194L229 106.389L228 105.611L227 104.806L225 103.194L224 102.389L223 101.611L222 100.806L220 99.1944L219 98.3889L218 97.6111L217 96.8056L215 95.1944L213 93.6111L212 92.8056L210 91.1944L209 90.3889L208 89.6111L206 87.9444L205 87.0556L203 85.3889L201 83.8056L199 82.1944L198 81.3889L197 80.6111L196 79.8056L194 78.1944L193 77.3889L192 76.6111L191 75.8056L189 74.1944L188 73.3889L187 72.6111L186 71.8056L184 70.1944L183 69.3889L182 68.6111L181 67.8056L179 66.1944L178 65.3889L177 64.6111L176 63.8056L174 62.1944L173 61.3889L172 60.6111L171 59.8056L169 58.1944L168 57.3889L167 56.6111L166 55.8056L164 54.1944L163 53.3889L162 52.6389L161 51.8611L159 50.4445L157 49.2778L156 48.8611L155 48.4722L153 48.0833L151 48.0833L149 48.4722L147 49.2778L146 49.8611L145 50.4722L144 51.25L143 52.0833L141 54L140 55L138 56.9722L137 57.9167L135 59.6111L134 60.3889L132 62.0833L131 63.0278L129 65L127 67L125 68.9167L124 69.7778L122 71.3889L121 72.2222L120 73.0833L118 75L116 77L114 78.9722L113 79.9167L111 81.6111L110 82.3889L108 84.0833L107 85.0278L106 86L104 88L102 89.9722L101 90.9167L99 92.6111L98 93.3889L96 95.0833L95 96.0278L93 98L91 100L89 101.917L88 102.778L86 104.389L85 105.222L84 106.083L82 108L81 109L79 111L77 112.917L76 113.778L74 115.389L72 117.083L71.0278 118.028L69.3333 120L68.7222 121L68.1111 123L68 125L68 126L68 128L68 131L68 141L68 143L68 144L68.0278 146L68.0833 147L68.3889 149L68.6111 149.944L68.7778 150.944L68.9167 151.5L69 153M13 99L13 148L62 148L62 99L13 99M106 186L107.5 186.75L108.056 187.222L109.056 187.889L110 188.639L111 189.389L112 190.194L114 191.806L116 193.389L117.917 195.083L119.528 197L120.139 198L121.222 200L121.75 201L122.611 203L123.389 205L124.278 207L124.833 208L125.389 209L126.028 210L127.417 212L129.083 214L131 215.917L132 216.778L133 217.611L135 219.194L137 220.806L138 221.583L139 222.306L141 223.611L142 224.167L143 224.722L144 225.167L145 225.611L147 226.306L148 226.611L149 226.861L151 227.361L152 227.611L154 227.833L156 227.611L157 227.361L159 226.861L161 226.306L163 225.611L164 225.167L165 224.75L166 224.222L167 223.75L169 222.611L170 221.972L172 220.583L174 218.917L176 217L177 216L178.917 214L180.583 212L181.306 211L182.667 209L183.917 207L184.917 205L185.278 204L185.583 203L186 201L186.417 199L186.722 198L187.111 197L188.306 195.028L189.111 194.083L191 192.417L192 191.694L193 191L195 189.667L197 188.306L198 187.583L200 185.944L201 185.056L203 183.389L204 182.611L206 180.944L207.944 179.306L208.5 178.778L210 178L210.25 176.5L210.639 174.944L210.861 174L211.139 173L211.361 172L211.611 171L211.917 169L212 167L212.083 165L212.389 163L212.611 162L212.917 160L212.972 159L213 157L213 155L213 146L213 144L213 143L212.972 141L212.917 140L212.5 138L211.583 136.028L210.972 135.083L209.583 133.472L207.917 132.278L206.972 131.861L206 131.472L204 131.083L202 130.917L201 130.778L199 130.389L197 130.083L195 130.083L193 130.389L192 130.611L190 130.917L189 130.972L187 131L185 131.083L183 131.417L182 131.694L180 132.306L179 132.611L177 133.139L176 133.361L175 133.611L173.056 133.917L171.5 134L170 134L171.5 132.583L173.056 131.361L174 130.694L176 129.306L177 128.611L178.944 127.222L179.5 126.75L181 126L180.222 125.278L179.694 125.25L178.889 125.056L177 125.083L175 125.389L173 125.806L171 126.194L170 126.389L169 126.639L167 127.139L166 127.389L164 128.028L163 128.389L161 129.25L160 129.778L158 130.778L157 131.222L156 131.778L155 132.222L154 132.778L153 133.222L152 133.778L151 134.222L150 134.778L148 135.778L147 136.25L146 136.833L145 137.389L143 138.611L141 139.806L140 140.389L138 141.667L136 143L134 144.333L133 145L131 146.389L130 147.139L128 148.639L127 149.361L126 150.139L124 151.639L123 152.389L121 154.083L120 155.028L118.083 157L116.417 159L115 161L114.333 162L113.028 164L112.389 165L111.25 167L110.778 168L110.222 169L109.778 170L109.25 171L108.389 173L108.028 174L107.389 176L107.139 177L106.861 178L106.389 180L106.083 182L106.028 182.944L106 183.944L106 186M155 177L156.25 178.5L157.444 179.972L159.083 181.5L160.028 182.056L161 182.5L163 182.917L165 183.083L166 183.222L168 183.611L169 183.778L170 183.917L172 184L174 184.028L175 184.083L177 184.389L178 184.611L179 184.778L180.944 185.028L181.944 185.25L182.5 185.278L184 186L183.917 187.5L183.528 189.056L182.75 191L182.222 192L181.778 193L181.222 194L180.778 195L180.222 196L179.778 197L179.222 198L178.778 199L178.222 200L177.222 202L176.75 203L175.528 205L174.75 206L173.917 207L172 209L171 210L170 211L168 212.917L166 214.583L164 215.972L163 216.583L161 217.583L159 218.389L157 219.167L155 219.667L154 219.694L153 219.556L151 218.972L149 218.167L148 217.75L146 216.75L145 216.167L144 215.611L143 214.972L141 213.583L139 211.917L138.028 210.972L137.083 210L135.417 208L134 206L133.333 205L132.028 203L131.389 202L130.25 200L129.778 199L128.778 197L128.222 196L127.778 195L126.778 193L126.25 192L125.472 190L125.083 188.056L125 186.5L125 185L126.5 184.972L128.056 184.778L130 184.389L132 184.083L133 184.028L135 184L137 183.972L138 183.917L140 183.611L141 183.389L143 183.083L144 183L146 182.75L147 182.5L149 181.5L151 179.944L151.944 179.083L152.944 178.306L153.5 177.778L155 177M147 192L146.306 193.5L146.361 195.056L147.056 196.944L147.944 198.5L149 200L147.5 200.5L146.944 200.806L145 201.528L143.056 201.917L141.5 202L140 202L140.778 203.472L142.111 204.722L143.028 205.278L144 205.667L145 205.889L147 205.889L149 205.389L151 204.611L153 204.111L155 204.083L157 204.472L159 205.167L160 205.528L162 205.889L163 205.861L164 205.694L164.972 205.361L166.667 204.333L167.639 203.25L168 202L166.5 202L164.944 201.889L164 201.694L162.056 200.972L161.5 200.667L160 200L160 198L161.139 197.222L161.333 196.694L161.722 195.889L161.889 195.028L162 193.5L162 192L160.5 192.333L159.944 192.611L158.944 193L158 193.389L156 193.889L155 193.972L153 193.917L151 193.528L149.056 192.806L148.5 192.5L147 192M201 259L199.5 260.25L197.944 261.417L197 262.139L196 262.833L195 263.556L193 264.75L192 265.222L191 265.778L190 266.25L188 267.389L186 268.611L185 269.167L184 269.75L182 270.778L181 271.222L180 271.778L179 272.222L178 272.778L176 273.75L175 274.167L174 274.611L172 275.389L170 276.25L169 276.75L168 277.167L167 277.611L165 278.389L163 279.25L162 279.75L160 280.556L159 280.833L157 281.361L156 281.611L154 281.917L152 281.917L150 281.583L149 281.306L147 280.611L146 280.194L144 279.389L142 278.611L140 277.75L139 277.25L137 276.389L135 275.611L134 275.194L132.056 274.472L131.5 274.278L130 274L130.778 275.25L131.306 275.667L133.028 277.194L134 278L136 279.611L137 280.389L139 282L141 283.611L142 284.389L143 285.194L145 286.806L146 287.611L147 288.389L149 290L151 291.583L153 292.972L154 293.583L155 294.083L156 294.5L158 294.917L160 294.917L161 294.75L162 294.528L163 294.139L164 293.722L166 292.528L167 291.778L168 291L170 289.389L171 288.611L173 286.917L175 285L176 284L178 282L180 280.083L181 279.222L182 278.389L184 276.778L185 275.917L187 274L189 272L191 270.028L192 269.083L194 267.389L195 266.611L197 264.917L198 263.972L198.972 263L200.611 261.111L201.028 260.306L201.361 259.778L201 259z"/>
</svg>
